<?xml version="1.0" encoding="UTF-8" standalone="no"?>
<!-- Created with Inkscape (http://www.inkscape.org/) -->

<svg
   width="24.466908mm"
   height="22.426624mm"
   viewBox="0 0 24.466907 22.426624"
   version="1.1"
   id="svg1"
   inkscape:version="1.3.2 (091e20ef0f, 2023-11-25)"
   sodipodi:docname="logo-color-onlyicon-nobackground.svg"
   inkscape:export-filename="../png/logo-thims_market-icon-color-nobackground.png"
   inkscape:export-xdpi="600"
   inkscape:export-ydpi="600"
   xmlns:inkscape="http://www.inkscape.org/namespaces/inkscape"
   xmlns:sodipodi="http://sodipodi.sourceforge.net/DTD/sodipodi-0.dtd"
   xmlns="http://www.w3.org/2000/svg"
   xmlns:svg="http://www.w3.org/2000/svg">
  <sodipodi:namedview
     id="namedview1"
     pagecolor="#122d42"
     bordercolor="#eeeeee"
     borderopacity="1"
     inkscape:showpageshadow="0"
     inkscape:pageopacity="0"
     inkscape:pagecheckerboard="0"
     inkscape:deskcolor="#d1d1d1"
     inkscape:document-units="px"
     inkscape:zoom="2.8685466"
     inkscape:cx="45.84203"
     inkscape:cy="49.676725"
     inkscape:window-width="1536"
     inkscape:window-height="795"
     inkscape:window-x="0"
     inkscape:window-y="0"
     inkscape:window-maximized="1"
     inkscape:current-layer="layer1"
     inkscape:export-bgcolor="#ffffff00" />
  <defs
     id="defs1" />
  <g
     inkscape:label="Layer 1"
     inkscape:groupmode="layer"
     id="layer1"
     transform="translate(-65.859002,-133.78467)">
    <g
       id="g6"
       transform="matrix(0.4928708,0,0,0.4928708,94.466866,124.13887)"
       style="fill:#3dd2cc">
      <circle
         cx="0.2"
         cy="74.5"
         transform="rotate(-19,0.1,74.656)"
         id="circle4"
         r="0" />
      <circle
         cx="0.60000002"
         cy="5.0999999"
         transform="rotate(-8.1,0.717,5.248)"
         id="circle5"
         r="0" />
    </g>
    <g
       id="SvgjsG11321"
       featurekey="symbolFeature-0"
       transform="matrix(0.27712059,0,0,0.25402801,64.15172,130.95155)"
       fill="#3dd2cc"
       style="stroke:#3dd2cc;stroke-width:1.69526;stroke-dasharray:none;stroke-opacity:1">
      <g
         transform="translate(0,-952.36218)"
         id="g1"
         style="stroke:#3dd2cc;stroke-width:1.69526;stroke-dasharray:none;stroke-opacity:1">
        <path
           d="m 25.062036,975.20543 c -3.036812,-1.58636 -6.693756,-2.38723 -9.87256,-2.78972 -2.366026,-0.2997 -4.431151,-0.37844 -5.8352594,-0.25047 -1.0175072,-0.0148 -1.5699661,0.38744 -2.2079222,0.8942 -0.3822701,1.02946 0.032225,1.50317 0.6939472,2.07465 5.2318444,2.76841 7.4432914,5.31882 8.8316884,7.83299 0.593849,1.0755 1.043792,2.16639 1.482456,3.29066 -2.704894,6.16493 -4.381706,13.24229 -4.636687,20.38766 -0.53262,14.9273 5.290051,30.1652 20.714793,36.6011 6.315815,2.4448 14.044299,1.1549 18.586425,-5.6265 1.901482,-3.0959 2.947791,-6.3577 4.005781,-9.6216 7.629592,7.7515 15.74518,15.2442 24.72883,22.7126 0.526377,0.5202 0.972896,0.1223 1.41589,-0.092 0.283883,-0.3502 0.417215,-0.8507 0.192747,-1.2668 -6.189635,-9.5913 -12.399611,-18.3382 -18.79891,-26.5397 3.485949,2.6698 6.70594,6.4898 10.187962,8.4055 2.685861,1.4365 5.796892,1.8502 8.894831,-0.1789 9.165823,-6.0035 14.953852,-22.3144 4.794388,-42.27737 C 80.601881,973.75235 66.060308,964.66871 51.366573,964.364 44.23949,964.2831 31.464759,967.82023 25.062036,975.20607 Z m 26.243712,-8.47684 c 14.005528,0.29298 27.934522,8.90394 35.19977,23.17979 9.761282,19.18052 4.053111,33.81012 -4.068821,39.12982 -2.520707,1.651 -4.719465,1.3448 -7.033932,0.1071 -5.02943,-2.6577 -8.925343,-9.1023 -13.973001,-10.0145 -9.603178,-11.6811 -19.737667,-22.79836 -28.734611,-31.61865 -0.0292,-3.52301 -1.706721,-7.00887 -3.753518,-9.37103 -0.586396,-0.66515 -1.250032,-1.25977 -1.98718,-1.78852 6.436962,-6.6163 17.285035,-9.78218 24.351293,-9.62447 z m -40.532217,7.76154 c 1.185984,-0.0274 2.458875,-0.041 4.195103,0.17891 4.516145,0.57194 10.056242,2.24707 12.553586,5.07895 2.192616,2.80122 4.448674,7.77749 2.113362,10.5516 -2.688479,2.84077 -5.91693,2.21174 -7.696258,-0.67963 -1.42596,-2.3821 -1.977714,-4.99598 -3.564196,-7.86888 -1.325157,-2.39988 -3.766912,-4.83098 -7.601597,-7.26095 z m 34.759092,1.10912 c -1.59051,1.2862 -2.773171,3.43082 -3.595716,4.36365 -1.295952,1.29965 -3.02211,2.25983 -3.848079,3.82705 -0.511171,1.00223 -0.537152,2.4115 0.126081,3.68414 0.663333,1.27264 1.87983,2.50437 3.911219,3.97028 3.552213,2.24809 7.701596,1.35458 9.904181,-1.89574 2.581834,-4.24583 1.348217,-8.13759 -0.662427,-11.80339 -1.705513,-2.80305 -3.405789,-3.70409 -5.835259,-2.14599 z m 4.132062,3.36165 c 1.87822,3.16486 2.477606,6.55021 0.756988,9.22814 -1.968853,2.55668 -4.828125,3.00498 -7.223154,1.32335 -1.893929,-1.36665 -2.868033,-2.45298 -3.248793,-3.18331 -0.380659,-0.73034 -0.318323,-0.95642 -0.09466,-1.39503 0.984779,-1.4103 2.393217,-2.29037 3.532676,-3.32633 1.148422,-1.30215 2.278213,-3.31311 3.311934,-4.14908 1.387189,-1.02114 2.353237,0.4132 2.96491,1.50226 z m 13.562937,2.75462 c -1.006027,1.14069 -2.428865,2.85866 -3.406494,4.68558 -0.981858,1.86839 -1.473291,4.27853 -0.157702,5.83001 1.605817,1.82111 3.748584,2.91701 5.83526,3.255 3.479705,0.56304 4.96216,-1.59536 7.475415,-2.93296 2.068348,-0.70994 3.198743,-2.46951 2.744168,-4.72136 -0.30634,-1.42112 -1.030095,-3.22798 -2.334103,-5.86591 -2.82312,-4.79178 -6.92044,-3.86556 -10.156544,-0.25036 z m 8.390206,1.35891 c 0.912574,2.06382 2.335916,4.36046 2.081741,6.5812 -2.718187,1.40552 -5.171624,3.981 -7.917001,3.5768 -1.660397,-0.2687 -3.450803,-1.1947 -4.699727,-2.61103 -0.597876,-1.09032 0.02014,-2.08537 0.441584,-3.04019 0.806534,-1.50739 2.157672,-3.16224 3.122612,-4.25642 2.551623,-2.54723 5.271924,-3.5882 6.970791,-0.25036 z m -52.328011,5.93747 c 0.286098,0.6198 0.598783,1.2625 0.97783,1.89563 2.068146,2.95438 4.404365,4.11057 7.286194,3.46946 0.182173,0.14802 0.392039,0.46015 0.536145,0.64395 -2.022628,1.03744 -4.101348,3.16315 -4.636687,5.25776 -0.301103,1.2742 -1.358489,3.4819 -1.545495,5.687 -0.09365,1.103 0.08661,2.3499 0.883169,3.2549 1.942367,1.6147 3.837505,1.2519 5.929819,1.8599 1.796549,0.6817 3.48021,0.2734 4.636688,-1.1802 1.247816,-1.8391 1.90128,-3.3014 2.649506,-5.0433 6.192455,7.4803 12.518442,14.6043 19.208975,21.4965 -1.168563,3.4194 -2.300469,7.1925 -4.037301,9.9433 -5.929819,6.9601 -10.904769,7.0086 -16.599044,4.6591 -14.375815,-6.1681 -19.546331,-20.1053 -19.043317,-34.2032 0.577735,-6.3324 1.8039,-12.72555 3.753518,-17.7408 z m 13.247635,1.21601 c 1.274603,1.28427 2.504796,2.57377 3.753417,3.86294 l -3.280313,3.68414 c -1.131503,-1.41098 -2.247599,-2.81638 -3.374974,-4.25642 0.986591,-1.11641 1.907625,-2.16308 2.90187,-3.29066 z m -2.965011,6.65288 c 1.6178,2.04662 3.229559,4.09071 4.85753,6.08051 -0.714894,2.2886 -2.093523,5.272 -3.690478,6.2593 -2.112456,-0.6721 -4.847157,-0.7245 -6.529106,-1.6094 -0.276229,-0.3142 -0.376228,-0.7144 -0.315403,-1.4307 0.121549,-1.4336 1.093639,-3.5506 1.513975,-5.3295 0.920832,-2.22557 2.337326,-3.23896 4.163482,-3.97021 z m 44.663273,4.36361 c -1.092129,1.2386 -2.172274,3.0211 -2.775689,4.9002 -0.593546,1.9869 -0.601098,4.2108 0.630907,5.6513 1.665333,1.8885 3.912126,2.5396 5.8983,2.5396 3.002673,0.1224 4.490768,-1.8401 6.686908,-3.1834 1.886376,-0.8835 2.759978,-2.6063 2.144781,-4.6855 -0.386298,-1.2512 -1.156176,-2.8164 -2.460184,-5.0434 -2.720906,-3.13393 -7.606129,-2.92072 -10.125023,-0.1788 z m 8.421725,1.4665 c 0.904317,1.7493 2.27348,3.6007 2.334003,5.5798 -2.312352,1.6149 -4.515339,3.7173 -7.002311,3.7557 -1.582353,0 -3.289376,-0.5469 -4.478885,-1.8958 -0.727179,-1.0427 -0.403619,-2.1812 -0.157802,-3.2549 0.467163,-1.4548 1.423845,-3.0096 2.302583,-4.0059 2.170763,-1.6427 4.942524,-2.2029 7.002412,-0.1789 z m -50.624713,16.3814 c -1.135431,2.2303 -1.513774,4.8877 -1.261612,7.2609 0.425673,3.946 2.676898,5.0137 4.447365,7.4396 1.157082,2.1016 2.918082,2.8442 4.731247,1.7527 1.131202,-0.7034 2.474988,-1.9308 4.384325,-4.0418 2.035316,-2.2503 2.204498,-4.9528 1.356374,-6.939 -1.936023,-3.5413 -5.444631,-5.7151 -8.610947,-6.7958 -1.801182,-0.5704 -4.001148,-0.6349 -5.046752,1.3234 z m 4.478986,0.8586 c 2.660483,1.1839 6.096685,2.7565 7.380754,5.6156 0.559811,1.3108 0.631914,2.5473 -0.946209,4.2921 -1.510048,1.5374 -3.14396,3.6273 -5.078272,3.9703 -1.907926,-2.6265 -4.710905,-4.6294 -5.078271,-7.7616 -0.200601,-1.8883 0.126181,-4.0956 1.00935,-5.8302 0.769374,-0.881 1.807022,-0.476 2.712648,-0.2862 z"
           style="text-indent:0;text-transform:none;direction:ltr;baseline-shift:baseline;stroke:#3dd2cc;stroke-width:1.69526;stroke-dasharray:none;stroke-opacity:1;enable-background:accumulate"
           fill="#3dd2cc"
           fill-opacity="1"
           stroke="none"
           marker="none"
           visibility="visible"
           display="inline"
           overflow="visible"
           id="path1" />
      </g>
    </g>
    <g
       id="SvgjsG11325"
       featurekey="sloganFeature-0"
       transform="matrix(0.26458333,0,0,0.26458333,103.1875,162.18958)"
       fill="#3dd2cc">
      <path
         d=""
         id="path9" />
    </g>
  </g>
</svg>
